# xmcd
#
# Track frame offsets:
#	150
#	21206
#	41129
#	59177
#	77237
#	98258
#	116176
#	137446
#	159232
#	166974
#	185554
#
# Disc length: 2649 seconds
#
# Revision: 2
# Processed by: cddbd v1.5.2PL0 Copyright (c) Steve Scherf et al.
# Submitted via: audiograbber 1.83.01
#
DISCID=8e0a570b
DTITLE=Songs 4 Worship - Songs 4 Worship - All Creation Worships Disc 1. 2003
DYEAR=2003
DGENRE=Worship and Praise
TTITLE0=Paul Baloche - Falling
TTITLE1=Lincoln Brewster - The power of your love
TTITLE2=Gary Sadler - Rock of refuge
TTITLE3=Habib Bardowell - No need to fear
TTITLE4=Don Moen - I will sing
TTITLE5=Steve Merkel - We will meet you there
TTITLE6=Don Moen - I want to be where you are
TTITLE7=Tony Melendez - All creation worships you
TTITLE8=Travis Cottrell - In the cross
TTITLE9=Travis Cottrell - Worthy is the Lamb
TTITLE10=Travis Cottrell - Crown him with many crowns
EXTD=
EXTT0=
EXTT1=
EXTT2=
EXTT3=
EXTT4=
EXTT5=
EXTT6=
EXTT7=
EXTT8=
EXTT9=
EXTT10=
PLAYORDER=
